<svg width="222" height="72" viewBox="0 0 222 72" fill="none" xmlns="http://www.w3.org/2000/svg">
<path d="M96.9628 57.5519C96.0379 57.5519 95.2635 57.29 94.6394 56.7663C94.0266 56.2426 93.5585 55.5239 93.2354 54.6101C92.9234 53.6964 92.7674 52.6712 92.7674 51.5346C92.7674 50.3757 92.9234 49.345 93.2354 48.4424C93.5585 47.5398 94.0266 46.8266 94.6394 46.3029C95.2635 45.7791 96.0379 45.5173 96.9628 45.5173C97.8877 45.5173 98.6566 45.7791 99.2694 46.3029C99.8934 46.8266 100.361 47.5398 100.673 48.4424C100.985 49.345 101.141 50.3757 101.141 51.5346C101.141 52.6712 100.985 53.6964 100.673 54.6101C100.361 55.5239 99.8934 56.2426 99.2694 56.7663C98.6566 57.29 97.8877 57.5519 96.9628 57.5519ZM96.9628 56.198C97.5534 56.198 98.0492 56.0086 98.4504 55.6297C98.8627 55.2508 99.1747 54.716 99.3864 54.0251C99.5982 53.3231 99.704 52.4929 99.704 51.5346C99.704 50.5651 99.5982 49.735 99.3864 49.0441C99.1747 48.3421 98.8627 47.8072 98.4504 47.4395C98.0492 47.0606 97.5534 46.8712 96.9628 46.8712C96.3722 46.8712 95.8708 47.0606 95.4585 47.4395C95.0573 47.8072 94.7453 48.3421 94.5224 49.0441C94.3107 49.735 94.2049 50.5651 94.2049 51.5346C94.2049 52.4929 94.3107 53.3231 94.5224 54.0251C94.7453 54.716 95.0573 55.2508 95.4585 55.6297C95.8708 56.0086 96.3722 56.198 96.9628 56.198ZM105.815 57.3848C105.614 57.3848 105.447 57.3179 105.313 57.1842C105.18 57.0505 105.113 56.8889 105.113 56.6995V47.1888L105.313 47.4228L103.424 48.7265C103.313 48.8045 103.185 48.8435 103.04 48.8435C102.851 48.8435 102.689 48.7767 102.555 48.6429C102.422 48.4981 102.355 48.3365 102.355 48.1582C102.355 47.9131 102.472 47.7181 102.706 47.5732L105.363 45.8181C105.453 45.7624 105.542 45.7234 105.631 45.7011C105.72 45.6788 105.809 45.6733 105.898 45.6844C106.099 45.6844 106.255 45.7513 106.366 45.885C106.489 46.0076 106.55 46.1636 106.55 46.353V56.6995C106.55 56.8889 106.478 57.0505 106.333 57.1842C106.199 57.3179 106.026 57.3848 105.815 57.3848ZM121.449 45.6176C121.639 45.6176 121.795 45.69 121.917 45.8349C122.051 45.9686 122.118 46.1246 122.118 46.3029C122.118 46.3697 122.107 46.4422 122.084 46.5202C122.073 46.587 122.045 46.6539 122.001 46.7207L118.123 52.1196L118.34 51.3006V56.6995C118.34 56.8889 118.273 57.0505 118.14 57.1842C118.017 57.3179 117.867 57.3848 117.688 57.3848C117.488 57.3848 117.321 57.3179 117.187 57.1842C117.064 57.0505 117.003 56.8889 117.003 56.6995V51.4343L117.12 51.8689L113.359 46.7876C113.292 46.6985 113.242 46.6149 113.209 46.5369C113.186 46.4477 113.175 46.3642 113.175 46.2862C113.175 46.0967 113.253 45.9407 113.409 45.8181C113.565 45.6844 113.721 45.6176 113.877 45.6176C114.1 45.6176 114.284 45.7234 114.429 45.9351L117.889 50.6821L117.571 50.632L120.898 45.9519C121.042 45.729 121.226 45.6176 121.449 45.6176ZM126.969 57.5519C126.078 57.5519 125.298 57.3625 124.629 56.9836C123.961 56.6047 123.437 56.0866 123.058 55.4291C122.69 54.7605 122.506 53.9917 122.506 53.1225C122.506 52.153 122.696 51.3284 123.075 50.6487C123.465 49.9578 123.966 49.4341 124.579 49.0775C125.203 48.7098 125.86 48.5259 126.551 48.5259C127.064 48.5259 127.56 48.6207 128.039 48.8101C128.518 48.9995 128.942 49.2781 129.309 49.6458C129.677 50.0024 129.972 50.437 130.195 50.9496C130.418 51.451 130.535 52.0138 130.546 52.6378C130.546 52.8161 130.479 52.9665 130.346 53.0891C130.212 53.2116 130.056 53.2729 129.878 53.2729H123.275L122.974 52.1196H129.41L129.142 52.3536V51.9859C129.098 51.529 128.942 51.139 128.674 50.8159C128.418 50.4816 128.1 50.2253 127.721 50.047C127.354 49.8687 126.964 49.7795 126.551 49.7795C126.217 49.7795 125.883 49.8408 125.548 49.9634C125.225 50.0748 124.93 50.2643 124.663 50.5317C124.406 50.788 124.195 51.1223 124.027 51.5346C123.871 51.9469 123.793 52.4428 123.793 53.0222C123.793 53.6685 123.922 54.2368 124.178 54.7271C124.445 55.2174 124.813 55.6074 125.281 55.8972C125.749 56.1757 126.295 56.315 126.919 56.315C127.309 56.315 127.649 56.2649 127.939 56.1646C128.228 56.0643 128.479 55.9417 128.691 55.7969C128.903 55.6409 129.081 55.4849 129.226 55.3288C129.371 55.2286 129.51 55.1784 129.644 55.1784C129.811 55.1784 129.944 55.2341 130.045 55.3456C130.156 55.457 130.212 55.5907 130.212 55.7467C130.212 55.9362 130.123 56.1033 129.944 56.2482C129.632 56.5936 129.209 56.9 128.674 57.1675C128.139 57.4238 127.571 57.5519 126.969 57.5519ZM139.742 48.6597C139.931 48.6597 140.087 48.7265 140.21 48.8602C140.344 48.9828 140.41 49.1388 140.41 49.3282V56.6995C140.41 56.8889 140.344 57.0505 140.21 57.1842C140.087 57.3179 139.931 57.3848 139.742 57.3848C139.541 57.3848 139.38 57.3179 139.257 57.1842C139.134 57.0505 139.073 56.8889 139.073 56.6995V55.1116L139.391 55.0781C139.391 55.3233 139.307 55.5907 139.14 55.8804C138.973 56.1702 138.744 56.4432 138.455 56.6995C138.165 56.9446 137.82 57.1508 137.418 57.3179C137.028 57.4739 136.605 57.5519 136.148 57.5519C135.39 57.5519 134.711 57.3569 134.109 56.9669C133.507 56.5657 133.028 56.0253 132.671 55.3456C132.326 54.6658 132.153 53.8914 132.153 53.0222C132.153 52.1419 132.326 51.3674 132.671 50.6989C133.028 50.0191 133.507 49.4898 134.109 49.111C134.711 48.7209 135.379 48.5259 136.115 48.5259C136.594 48.5259 137.04 48.6039 137.452 48.7599C137.864 48.9159 138.221 49.1277 138.522 49.3951C138.834 49.6625 139.073 49.9578 139.24 50.281C139.419 50.6041 139.508 50.9273 139.508 51.2504L139.073 51.1502V49.3282C139.073 49.1388 139.134 48.9828 139.257 48.8602C139.38 48.7265 139.541 48.6597 139.742 48.6597ZM136.299 56.315C136.856 56.315 137.346 56.1702 137.769 55.8804C138.204 55.5907 138.538 55.2007 138.772 54.7104C139.017 54.209 139.14 53.6462 139.14 53.0222C139.14 52.4093 139.017 51.8577 138.772 51.3674C138.538 50.866 138.204 50.476 137.769 50.1974C137.346 49.9077 136.856 49.7628 136.299 49.7628C135.753 49.7628 135.262 49.9021 134.828 50.1807C134.404 50.4593 134.07 50.8437 133.825 51.334C133.58 51.8243 133.457 52.387 133.457 53.0222C133.457 53.6462 133.574 54.209 133.808 54.7104C134.053 55.2007 134.387 55.5907 134.811 55.8804C135.246 56.1702 135.741 56.315 136.299 56.315ZM143.557 57.3848C143.368 57.3848 143.206 57.3179 143.072 57.1842C142.95 57.0505 142.888 56.8889 142.888 56.6995V49.4118C142.888 49.2224 142.95 49.0664 143.072 48.9438C143.206 48.8101 143.368 48.7432 143.557 48.7432C143.758 48.7432 143.919 48.8101 144.042 48.9438C144.164 49.0664 144.226 49.2224 144.226 49.4118V51.6182L144.025 51.2672C144.092 50.9217 144.209 50.5874 144.376 50.2643C144.554 49.93 144.777 49.6347 145.045 49.3784C145.312 49.111 145.619 48.9048 145.964 48.7599C146.309 48.6039 146.688 48.5259 147.101 48.5259C147.346 48.5259 147.569 48.5872 147.769 48.7098C147.981 48.8212 148.087 48.9828 148.087 49.1945C148.087 49.4285 148.025 49.6013 147.903 49.7127C147.78 49.8241 147.641 49.8798 147.485 49.8798C147.34 49.8798 147.201 49.852 147.067 49.7963C146.933 49.7294 146.766 49.696 146.566 49.696C146.287 49.696 146.009 49.774 145.73 49.93C145.463 50.0748 145.212 50.2866 144.978 50.5651C144.755 50.8437 144.571 51.1613 144.426 51.5179C144.293 51.8633 144.226 52.2366 144.226 52.6378V56.6995C144.226 56.8889 144.159 57.0505 144.025 57.1842C143.902 57.3179 143.746 57.3848 143.557 57.3848ZM167.84 45.6343C168.018 45.6343 168.179 45.6956 168.324 45.8181C168.48 45.9407 168.558 46.1134 168.558 46.3363C168.558 46.4143 168.547 46.4979 168.525 46.587L164.965 56.9502C164.92 57.0839 164.836 57.1898 164.714 57.2678C164.602 57.3346 164.485 57.3736 164.363 57.3848C164.229 57.3848 164.101 57.3513 163.978 57.2845C163.856 57.2065 163.761 57.095 163.694 56.9502L160.903 50.1974L161.037 50.2476L158.262 56.9502C158.195 57.095 158.1 57.2065 157.978 57.2845C157.855 57.3513 157.727 57.3848 157.593 57.3848C157.471 57.3736 157.348 57.3346 157.226 57.2678C157.114 57.1898 157.036 57.0839 156.992 56.9502L153.431 46.587C153.409 46.4979 153.398 46.4199 153.398 46.353C153.398 46.1301 153.476 45.9574 153.632 45.8349C153.799 45.7011 153.966 45.6343 154.133 45.6343C154.267 45.6343 154.395 45.6733 154.518 45.7513C154.64 45.8293 154.724 45.9351 154.769 46.0689L157.894 55.2954H157.66L160.385 48.5594C160.441 48.4256 160.524 48.3198 160.636 48.2418C160.747 48.1638 160.875 48.1248 161.02 48.1248C161.154 48.1248 161.276 48.1638 161.388 48.2418C161.51 48.3198 161.594 48.4256 161.638 48.5594L164.279 55.1951L164.079 55.2787L167.188 46.0689C167.232 45.9351 167.316 45.8293 167.438 45.7513C167.561 45.6733 167.695 45.6343 167.84 45.6343ZM171.517 56.6995C171.517 56.8889 171.45 57.0505 171.316 57.1842C171.193 57.3179 171.037 57.3848 170.848 57.3848C170.647 57.3848 170.486 57.3179 170.363 57.1842C170.241 57.0505 170.179 56.8889 170.179 56.6995V49.2781C170.179 49.0887 170.241 48.9327 170.363 48.8101C170.497 48.6764 170.659 48.6095 170.848 48.6095C171.037 48.6095 171.193 48.6764 171.316 48.8101C171.45 48.9327 171.517 49.0887 171.517 49.2781V56.6995ZM170.848 47.4896C170.569 47.4896 170.363 47.4339 170.23 47.3225C170.096 47.211 170.029 47.0383 170.029 46.8043V46.5703C170.029 46.3363 170.101 46.1636 170.246 46.0521C170.391 45.9407 170.597 45.885 170.865 45.885C171.132 45.885 171.333 45.9407 171.466 46.0521C171.6 46.1636 171.667 46.3363 171.667 46.5703V46.8043C171.667 47.0383 171.595 47.211 171.45 47.3225C171.316 47.4339 171.115 47.4896 170.848 47.4896ZM173.584 48.7934H177.512C177.691 48.7934 177.835 48.8547 177.947 48.9772C178.069 49.0998 178.131 49.2447 178.131 49.4118C178.131 49.5901 178.069 49.7405 177.947 49.8631C177.835 49.9745 177.691 50.0303 177.512 50.0303H173.584C173.417 50.0303 173.272 49.969 173.15 49.8464C173.027 49.7238 172.966 49.5734 172.966 49.3951C172.966 49.228 173.027 49.0887 173.15 48.9772C173.272 48.8547 173.417 48.7934 173.584 48.7934ZM175.339 46.5202C175.529 46.5202 175.685 46.587 175.807 46.7207C175.93 46.8433 175.991 46.9993 175.991 47.1888V55.262C175.991 55.5294 176.03 55.73 176.108 55.8637C176.186 55.9974 176.286 56.0922 176.409 56.1479C176.543 56.1924 176.671 56.2147 176.793 56.2147C176.905 56.2147 177 56.198 177.078 56.1646C177.167 56.12 177.267 56.0977 177.378 56.0977C177.49 56.0977 177.59 56.1534 177.679 56.2649C177.78 56.3652 177.83 56.4989 177.83 56.666C177.83 56.8666 177.713 57.0393 177.479 57.1842C177.245 57.3179 176.983 57.3848 176.693 57.3848C176.537 57.3848 176.342 57.3736 176.108 57.3513C175.885 57.329 175.662 57.2566 175.44 57.134C175.217 57.0115 175.027 56.8109 174.871 56.5323C174.726 56.2426 174.654 55.8414 174.654 55.3288V47.1888C174.654 46.9993 174.721 46.8433 174.855 46.7207C174.988 46.587 175.15 46.5202 175.339 46.5202ZM184.169 48.6095C184.905 48.6095 185.484 48.7711 185.908 49.0942C186.342 49.4062 186.649 49.8297 186.827 50.3646C187.016 50.8883 187.111 51.4733 187.111 52.1196V56.6995C187.111 56.8889 187.044 57.0505 186.911 57.1842C186.788 57.3179 186.632 57.3848 186.443 57.3848C186.253 57.3848 186.092 57.3179 185.958 57.1842C185.835 57.0505 185.774 56.8889 185.774 56.6995V52.1196C185.774 51.6962 185.713 51.3173 185.59 50.983C185.468 50.6376 185.261 50.3646 184.972 50.164C184.693 49.9523 184.309 49.8464 183.818 49.8464C183.362 49.8464 182.944 49.9523 182.565 50.164C182.186 50.3646 181.885 50.6376 181.662 50.983C181.439 51.3173 181.328 51.6962 181.328 52.1196V56.6995C181.328 56.8889 181.261 57.0505 181.127 57.1842C181.005 57.3179 180.849 57.3848 180.659 57.3848C180.47 57.3848 180.308 57.3179 180.175 57.1842C180.052 57.0505 179.991 56.8889 179.991 56.6995V45.6844C179.991 45.495 180.052 45.339 180.175 45.2164C180.308 45.0827 180.47 45.0158 180.659 45.0158C180.86 45.0158 181.021 45.0827 181.144 45.2164C181.267 45.339 181.328 45.495 181.328 45.6844V50.6821L180.994 51.0499C181.049 50.7601 181.172 50.4704 181.361 50.1807C181.551 49.8798 181.79 49.6124 182.08 49.3784C182.37 49.1444 182.693 48.9605 183.05 48.8268C183.406 48.6819 183.779 48.6095 184.169 48.6095ZM202.716 45.6677C202.906 45.6677 203.062 45.7346 203.184 45.8683C203.307 46.002 203.368 46.1636 203.368 46.353V52.9888C203.368 53.8468 203.168 54.6157 202.766 55.2954C202.376 55.9752 201.847 56.5156 201.179 56.9168C200.51 57.3068 199.752 57.5018 198.905 57.5018C198.047 57.5018 197.278 57.3068 196.599 56.9168C195.93 56.5156 195.401 55.9752 195.011 55.2954C194.621 54.6157 194.426 53.8468 194.426 52.9888V46.353C194.426 46.1636 194.487 46.002 194.61 45.8683C194.743 45.7346 194.916 45.6677 195.128 45.6677C195.306 45.6677 195.462 45.7346 195.596 45.8683C195.741 46.002 195.813 46.1636 195.813 46.353V52.9888C195.813 53.6017 195.952 54.1477 196.231 54.6268C196.51 55.106 196.883 55.4849 197.351 55.7634C197.83 56.0309 198.348 56.1646 198.905 56.1646C199.474 56.1646 199.997 56.0309 200.476 55.7634C200.956 55.4849 201.34 55.106 201.63 54.6268C201.931 54.1477 202.081 53.6017 202.081 52.9888V46.353C202.081 46.1636 202.137 46.002 202.248 45.8683C202.36 45.7346 202.516 45.6677 202.716 45.6677ZM205.574 56.0142C205.474 55.8693 205.429 55.7189 205.44 55.5629C205.451 55.3957 205.546 55.2508 205.724 55.1283C205.836 55.0503 205.964 55.0168 206.109 55.028C206.265 55.0391 206.404 55.1116 206.527 55.2453C206.839 55.613 207.195 55.9083 207.596 56.1312C207.997 56.3429 208.488 56.4487 209.067 56.4487C209.335 56.4376 209.602 56.393 209.87 56.315C210.137 56.237 210.36 56.1033 210.538 55.9139C210.728 55.7133 210.822 55.4514 210.822 55.1283C210.822 54.8163 210.728 54.5711 210.538 54.3928C210.349 54.2034 210.104 54.053 209.803 53.9415C209.502 53.8189 209.173 53.7131 208.817 53.6239C208.449 53.5237 208.087 53.4122 207.73 53.2896C207.373 53.1559 207.05 52.9944 206.761 52.8049C206.482 52.6043 206.254 52.3592 206.075 52.0695C205.908 51.7686 205.825 51.4064 205.825 50.983C205.825 50.4816 205.958 50.047 206.226 49.6793C206.504 49.3115 206.872 49.0274 207.329 48.8268C207.797 48.6262 208.304 48.5259 208.85 48.5259C209.162 48.5259 209.485 48.5649 209.819 48.6429C210.165 48.7098 210.499 48.8324 210.822 49.0107C211.145 49.1778 211.43 49.4118 211.675 49.7127C211.775 49.8241 211.831 49.9634 211.842 50.1306C211.853 50.2977 211.781 50.4481 211.625 50.5819C211.502 50.671 211.363 50.71 211.207 50.6989C211.062 50.6877 210.939 50.632 210.839 50.5317C210.605 50.2531 210.31 50.0414 209.953 49.8965C209.608 49.7405 209.223 49.6625 208.8 49.6625C208.532 49.6625 208.27 49.7015 208.014 49.7795C207.758 49.8575 207.541 49.9913 207.362 50.1807C207.195 50.359 207.112 50.6097 207.112 50.9329C207.123 51.2337 207.223 51.4789 207.412 51.6683C207.602 51.8577 207.858 52.0138 208.181 52.1363C208.505 52.2478 208.861 52.3592 209.251 52.4706C209.608 52.5598 209.948 52.6656 210.271 52.7882C210.605 52.8996 210.906 53.0501 211.173 53.2395C211.441 53.4289 211.652 53.6741 211.808 53.975C211.964 54.2647 212.042 54.6324 212.042 55.0781C212.042 55.5907 211.898 56.0364 211.608 56.4153C211.318 56.783 210.934 57.0672 210.455 57.2678C209.987 57.4572 209.48 57.5519 208.934 57.5519C208.321 57.5519 207.713 57.4349 207.112 57.2009C206.521 56.9669 206.008 56.5713 205.574 56.0142Z" fill="#5E5D5D"/>
<path d="M102.253 26.0331H96.173L95.1283 29H92.642L97.8445 14.4581H100.602L105.805 29H103.298L102.253 26.0331ZM101.584 24.09L99.2235 17.3414L96.8416 24.09H101.584ZM110.449 13.5388V29H108.067V13.5388H110.449ZM124.127 22.9618C124.127 23.3936 124.099 23.7836 124.044 24.1318H115.247C115.317 25.0511 115.658 25.7894 116.271 26.3465C116.884 26.9037 117.636 27.1823 118.528 27.1823C119.809 27.1823 120.715 26.646 121.244 25.5735H123.814C123.466 26.6321 122.832 27.5026 121.912 28.1852C121.007 28.8537 119.879 29.188 118.528 29.188C117.427 29.188 116.438 28.9443 115.561 28.4568C114.697 27.9553 114.015 27.2589 113.513 26.3674C113.026 25.462 112.782 24.4174 112.782 23.2334C112.782 22.0494 113.019 21.0117 113.492 20.1203C113.98 19.2149 114.655 18.5184 115.519 18.0309C116.397 17.5434 117.399 17.2997 118.528 17.2997C119.614 17.2997 120.582 17.5364 121.432 18.01C122.282 18.4836 122.943 19.1522 123.417 20.0158C123.89 20.8655 124.127 21.8475 124.127 22.9618ZM121.641 22.2096C121.627 21.3321 121.314 20.6287 120.701 20.0994C120.088 19.5701 119.329 19.3054 118.423 19.3054C117.601 19.3054 116.898 19.5701 116.313 20.0994C115.728 20.6148 115.38 21.3182 115.268 22.2096H121.641ZM131.402 23.1707L135.121 29H132.426L129.939 25.0929L127.599 29H125.113L128.832 23.3379L125.113 17.4877H127.808L130.295 21.3948L132.635 17.4877H135.121L131.402 23.1707ZM136.104 23.1916C136.104 22.0355 136.34 21.0117 136.814 20.1203C137.301 19.2288 137.956 18.5393 138.778 18.0518C139.614 17.5504 140.533 17.2997 141.536 17.2997C142.441 17.2997 143.228 17.4807 143.897 17.8429C144.579 18.1911 145.123 18.6299 145.526 19.1592V17.4877H147.929V29H145.526V27.2867C145.123 27.83 144.572 28.2827 143.876 28.6448C143.179 29.007 142.386 29.188 141.494 29.188C140.505 29.188 139.6 28.9373 138.778 28.4359C137.956 27.9205 137.301 27.2101 136.814 26.3047C136.34 25.3854 136.104 24.3477 136.104 23.1916ZM145.526 23.2334C145.526 22.4394 145.359 21.75 145.025 21.1649C144.705 20.5799 144.28 20.1342 143.751 19.8278C143.221 19.5213 142.65 19.3681 142.037 19.3681C141.424 19.3681 140.853 19.5213 140.324 19.8278C139.795 20.1203 139.363 20.559 139.029 21.1441C138.708 21.7151 138.548 22.3977 138.548 23.1916C138.548 23.9856 138.708 24.682 139.029 25.281C139.363 25.8799 139.795 26.3396 140.324 26.6599C140.867 26.9664 141.438 27.1196 142.037 27.1196C142.65 27.1196 143.221 26.9664 143.751 26.6599C144.28 26.3535 144.705 25.9078 145.025 25.3227C145.359 24.7238 145.526 24.0274 145.526 23.2334ZM156.866 17.2997C157.771 17.2997 158.579 17.4877 159.29 17.8638C160.014 18.2399 160.578 18.797 160.982 19.5353C161.386 20.2735 161.588 21.1649 161.588 22.2096V29H159.227V22.5648C159.227 21.5341 158.969 20.7471 158.454 20.2038C157.939 19.6467 157.235 19.3681 156.344 19.3681C155.452 19.3681 154.742 19.6467 154.213 20.2038C153.697 20.7471 153.44 21.5341 153.44 22.5648V29H151.058V17.4877H153.44V18.804C153.83 18.3304 154.324 17.9613 154.923 17.6966C155.536 17.432 156.184 17.2997 156.866 17.2997ZM163.832 23.1916C163.832 22.0355 164.069 21.0117 164.543 20.1203C165.03 19.2288 165.685 18.5393 166.507 18.0518C167.342 17.5504 168.269 17.2997 169.285 17.2997C170.038 17.2997 170.776 17.4668 171.5 17.8011C172.238 18.1215 172.823 18.5533 173.255 19.0965V13.5388H175.658V29H173.255V27.2658C172.865 27.823 172.322 28.2827 171.626 28.6448C170.943 29.007 170.156 29.188 169.265 29.188C168.262 29.188 167.342 28.9373 166.507 28.4359C165.685 27.9205 165.03 27.2101 164.543 26.3047C164.069 25.3854 163.832 24.3477 163.832 23.1916ZM173.255 23.2334C173.255 22.4394 173.088 21.75 172.754 21.1649C172.433 20.5799 172.009 20.1342 171.479 19.8278C170.95 19.5213 170.379 19.3681 169.766 19.3681C169.153 19.3681 168.582 19.5213 168.053 19.8278C167.523 20.1203 167.092 20.559 166.757 21.1441C166.437 21.7151 166.277 22.3977 166.277 23.1916C166.277 23.9856 166.437 24.682 166.757 25.281C167.092 25.8799 167.523 26.3396 168.053 26.6599C168.596 26.9664 169.167 27.1196 169.766 27.1196C170.379 27.1196 170.95 26.9664 171.479 26.6599C172.009 26.3535 172.433 25.9078 172.754 25.3227C173.088 24.7238 173.255 24.0274 173.255 23.2334ZM189.338 22.9618C189.338 23.3936 189.31 23.7836 189.254 24.1318H180.458C180.528 25.0511 180.869 25.7894 181.482 26.3465C182.095 26.9037 182.847 27.1823 183.738 27.1823C185.02 27.1823 185.925 26.646 186.454 25.5735H189.024C188.676 26.6321 188.042 27.5026 187.123 28.1852C186.218 28.8537 185.089 29.188 183.738 29.188C182.638 29.188 181.649 28.9443 180.771 28.4568C179.908 27.9553 179.225 27.2589 178.724 26.3674C178.236 25.462 177.993 24.4174 177.993 23.2334C177.993 22.0494 178.229 21.0117 178.703 20.1203C179.19 19.2149 179.866 18.5184 180.73 18.0309C181.607 17.5434 182.61 17.2997 183.738 17.2997C184.825 17.2997 185.793 17.5364 186.642 18.01C187.492 18.4836 188.154 19.1522 188.627 20.0158C189.101 20.8655 189.338 21.8475 189.338 22.9618ZM186.851 22.2096C186.837 21.3321 186.524 20.6287 185.911 20.0994C185.298 19.5701 184.539 19.3054 183.634 19.3054C182.812 19.3054 182.109 19.5701 181.523 20.0994C180.938 20.6148 180.59 21.3182 180.479 22.2096H186.851ZM194.063 19.1592C194.412 18.5742 194.871 18.1215 195.442 17.8011C196.027 17.4668 196.717 17.2997 197.511 17.2997V19.7651H196.905C195.972 19.7651 195.261 20.0019 194.774 20.4755C194.3 20.949 194.063 21.7709 194.063 22.9409V29H191.682V17.4877H194.063V19.1592ZM212.67 29L209.327 23.1916H207.51V29H205.128V14.479H210.142C211.256 14.479 212.197 14.674 212.963 15.0641C213.743 15.4541 214.321 15.9764 214.697 16.6311C215.087 17.2857 215.282 18.017 215.282 18.8249C215.282 19.772 215.003 20.6356 214.446 21.4157C213.903 22.1818 213.06 22.7041 211.918 22.9827L215.512 29H212.67ZM207.51 21.2903H210.142C211.034 21.2903 211.702 21.0674 212.148 20.6217C212.608 20.176 212.837 19.577 212.837 18.8249C212.837 18.0727 212.615 17.4877 212.169 17.0698C211.723 16.638 211.048 16.4221 210.142 16.4221H207.51V21.2903ZM219.29 29.1463C218.858 29.1463 218.496 29 218.204 28.7075C217.911 28.415 217.765 28.0528 217.765 27.621C217.765 27.1892 217.911 26.8271 218.204 26.5346C218.496 26.2421 218.858 26.0958 219.29 26.0958C219.708 26.0958 220.063 26.2421 220.356 26.5346C220.648 26.8271 220.794 27.1892 220.794 27.621C220.794 28.0528 220.648 28.415 220.356 28.7075C220.063 29 219.708 29.1463 219.29 29.1463Z" fill="#030314"/>
<mask id="mask0_1_16501" style="mask-type:luminance" maskUnits="userSpaceOnUse" x="0" y="0" width="72" height="72">
<rect width="71.0378" height="71.0378" rx="35.5189" fill="white"/>
</mask>
<g mask="url(#mask0_1_16501)">
<rect x="-82.4902" width="230.241" height="153.494"/>
</g>
</svg>
