<svg width="17" height="14" viewBox="0 0 17 14" fill="none" xmlns="http://www.w3.org/2000/svg">
<path fill-rule="evenodd" clip-rule="evenodd" d="M0.766807 4.09755C0.52729 6.22303 0.537967 8.6744 0.871258 10.7912C1.05568 11.9625 2.05658 12.8605 3.29208 12.9631L4.5833 13.0703C7.27567 13.2938 9.98328 13.2938 12.6757 13.0703L13.9669 12.9631C15.2024 12.8605 16.2033 11.9625 16.3877 10.7912C16.721 8.67439 16.7317 6.22317 16.4922 4.09768C16.4612 3.85127 16.4264 3.60519 16.3877 3.35952C16.2033 2.18822 15.2024 1.29027 13.9669 1.18769L12.6756 1.08049C9.98327 0.856959 7.27567 0.856959 4.5833 1.08049L3.29208 1.18769C2.05657 1.29027 1.05568 2.18822 0.871258 3.35952C0.832585 3.60514 0.797768 3.85118 0.766807 4.09755ZM4.69436 2.30076C7.31283 2.08337 9.94611 2.08337 12.5646 2.30076L13.8558 2.40796C14.5007 2.46151 15.0232 2.93024 15.1195 3.54166C15.1295 3.60516 15.1392 3.66868 15.1487 3.73223L10.3941 6.25502C9.29666 6.83733 7.96223 6.83733 6.86478 6.25502L2.11029 3.73226C2.11974 3.6687 2.12947 3.60517 2.13947 3.54166C2.23574 2.93024 2.75821 2.46151 3.40314 2.40796L4.69436 2.30076ZM15.3056 5.05017C15.4714 6.90198 15.4094 8.76775 15.1195 10.6091C15.0232 11.2205 14.5007 11.6893 13.8558 11.7428L12.5646 11.85C9.94612 12.0674 7.31283 12.0674 4.69436 11.85L3.40314 11.7428C2.75821 11.6893 2.23574 11.2205 2.13947 10.6091C1.84955 8.76776 1.78752 6.902 1.95336 5.0502L6.24196 7.32575C7.72674 8.11359 9.53215 8.11359 11.0169 7.32575L15.3056 5.05017Z" fill="#C2C3CB"/>
</svg>
