<svg width="299" height="54" viewBox="0 0 299 54" fill="none" xmlns="http://www.w3.org/2000/svg">
<path d="M33.8458 19.89C33.0524 18.5833 31.9558 17.58 30.5558 16.88C29.2024 16.18 27.5924 15.83 25.7258 15.83C22.2724 15.83 19.5424 16.95 17.5358 19.19C15.5758 21.43 14.5958 24.44 14.5958 28.22C14.5958 32.4667 15.6458 35.71 17.7458 37.95C19.8924 40.1433 22.9958 41.24 27.0558 41.24C31.8624 41.24 35.2925 39.07 37.3458 34.73H23.5558V24.86H49.1758V38.16C48.1024 40.7733 46.5158 43.2233 44.4158 45.51C42.3624 47.7967 39.7491 49.6867 36.5758 51.18C33.4024 52.6267 29.7858 53.35 25.7258 53.35C20.7791 53.35 16.3924 52.3 12.5658 50.2C8.78578 48.0533 5.84578 45.09 3.74578 41.31C1.69245 37.4833 0.665781 33.12 0.665781 28.22C0.665781 23.3667 1.69245 19.05 3.74578 15.27C5.84578 11.4433 8.78578 8.48 12.5658 6.38C16.3458 4.23333 20.7091 3.16 25.6558 3.16C31.8624 3.16 36.9958 4.65333 41.0558 7.64C45.1158 10.6267 47.6358 14.71 48.6158 19.89H33.8458ZM69.0443 14.64V22.69H84.7943V33.12H69.0443V42.01H86.8943V53H55.3243V3.65H86.8943V14.64H69.0443ZM130.844 3.65V14.57H117.684V53H103.964V14.57H90.9439V3.65H130.844ZM185.368 13.94H164.368V21.71C165.255 20.7767 166.468 20.03 168.008 19.47C169.548 18.91 171.252 18.63 173.118 18.63C176.478 18.63 179.278 19.4 181.518 20.94C183.805 22.48 185.485 24.51 186.558 27.03C187.632 29.55 188.168 32.3033 188.168 35.29C188.168 40.7967 186.605 45.1367 183.478 48.31C180.352 51.4367 176.012 53 170.458 53C166.585 53 163.225 52.3467 160.378 51.04C157.578 49.6867 155.432 47.82 153.938 45.44C152.445 43.06 151.675 40.33 151.628 37.25H164.998C165.138 38.3233 165.605 39.2567 166.398 40.05C167.192 40.8433 168.358 41.24 169.898 41.24C171.532 41.24 172.768 40.68 173.608 39.56C174.448 38.44 174.868 36.9467 174.868 35.08C174.868 33.26 174.425 31.8833 173.538 30.95C172.652 29.97 171.368 29.48 169.688 29.48C168.428 29.48 167.402 29.8067 166.608 30.46C165.862 31.0667 165.418 31.8367 165.278 32.77H151.908V1.83H185.368V13.94ZM193.998 26.68C193.998 18.6533 195.631 12.33 198.898 7.71C202.164 3.09 207.298 0.779996 214.298 0.779996C221.298 0.779996 226.431 3.09 229.698 7.71C233.011 12.33 234.668 18.6533 234.668 26.68C234.668 34.8 233.034 41.17 229.768 45.79C226.501 50.41 221.344 52.72 214.298 52.72C207.251 52.72 202.094 50.41 198.828 45.79C195.608 41.17 193.998 34.8 193.998 26.68ZM221.088 26.68C221.088 22.48 220.644 19.2833 219.758 17.09C218.871 14.85 217.051 13.73 214.298 13.73C211.544 13.73 209.724 14.85 208.838 17.09C207.951 19.2833 207.508 22.48 207.508 26.68C207.508 30.9733 207.928 34.24 208.768 36.48C209.654 38.6733 211.498 39.77 214.298 39.77C217.098 39.77 218.918 38.6733 219.758 36.48C220.644 34.24 221.088 30.9733 221.088 26.68ZM239.093 14.99C239.093 11.0233 240.213 7.99 242.453 5.89C244.693 3.79 247.633 2.74 251.273 2.74C254.867 2.74 257.783 3.79 260.023 5.89C262.263 7.99 263.383 11.0233 263.383 14.99C263.383 18.91 262.263 21.9433 260.023 24.09C257.783 26.19 254.867 27.24 251.273 27.24C247.68 27.24 244.74 26.19 242.453 24.09C240.213 21.9433 239.093 18.91 239.093 14.99ZM288.793 3.51L262.263 53H249.103L275.633 3.51H288.793ZM251.203 10.79C249.29 10.79 248.333 12.19 248.333 14.99C248.333 17.79 249.29 19.19 251.203 19.19C252.137 19.19 252.86 18.84 253.373 18.14C253.933 17.44 254.213 16.39 254.213 14.99C254.213 13.59 253.933 12.54 253.373 11.84C252.86 11.14 252.137 10.79 251.203 10.79ZM274.513 41.45C274.513 37.53 275.633 34.52 277.873 32.42C280.16 30.2733 283.1 29.2 286.693 29.2C290.287 29.2 293.18 30.2733 295.373 32.42C297.613 34.52 298.733 37.53 298.733 41.45C298.733 45.4167 297.613 48.4733 295.373 50.62C293.18 52.72 290.287 53.77 286.693 53.77C283.1 53.77 280.16 52.72 277.873 50.62C275.633 48.4733 274.513 45.4167 274.513 41.45ZM286.623 37.25C284.663 37.25 283.683 38.65 283.683 41.45C283.683 44.2967 284.663 45.72 286.623 45.72C287.51 45.72 288.21 45.37 288.723 44.67C289.283 43.9233 289.563 42.85 289.563 41.45C289.563 40.0967 289.283 39.07 288.723 38.37C288.21 37.6233 287.51 37.25 286.623 37.25Z" fill="white"/>
</svg>
