<svg width="16" height="17" viewBox="0 0 16 17" fill="none" xmlns="http://www.w3.org/2000/svg">
<path fill-rule="evenodd" clip-rule="evenodd" d="M3.69564 4.98487C3.69564 2.77006 5.49109 0.974609 7.7059 0.974609C9.9207 0.974609 11.7162 2.77006 11.7162 4.98487C11.7162 7.19968 9.9207 8.99513 7.7059 8.99513C5.49109 8.99513 3.69564 7.19968 3.69564 4.98487ZM7.7059 2.39C6.27279 2.39 5.11102 3.55176 5.11102 4.98487C5.11102 6.41798 6.27279 7.57975 7.7059 7.57975C9.13901 7.57975 10.3008 6.41798 10.3008 4.98487C10.3008 3.55176 9.13901 2.39 7.7059 2.39Z" fill="#C2C3CB"/>
<path fill-rule="evenodd" clip-rule="evenodd" d="M3.93153 11.8259C2.75899 11.8259 1.80845 12.7764 1.80845 13.949V15.0702C1.80845 15.0873 1.82083 15.1019 1.83768 15.1046C5.7241 15.7391 9.6877 15.7391 13.5741 15.1046C13.591 15.1019 13.6033 15.0873 13.6033 15.0702V13.949C13.6033 12.7764 12.6528 11.8259 11.4803 11.8259H11.1586C11.1338 11.8259 11.109 11.8298 11.0854 11.8376L10.2687 12.1042C8.60343 12.648 6.80836 12.648 5.14309 12.1042L4.3264 11.8376C4.30276 11.8298 4.27804 11.8259 4.25317 11.8259H3.93153ZM0.393066 13.949C0.393066 11.9947 1.97729 10.4105 3.93153 10.4105H4.25317C4.42726 10.4105 4.60025 10.438 4.76574 10.4921L5.58243 10.7588C6.96223 11.2093 8.44957 11.2093 9.82937 10.7588L10.6461 10.4921C10.8115 10.438 10.9845 10.4105 11.1586 10.4105H11.4803C13.4345 10.4105 15.0187 11.9947 15.0187 13.949V15.0702C15.0187 15.781 14.5036 16.387 13.8022 16.5015C9.76472 17.1607 5.64707 17.1607 1.60961 16.5015C0.908157 16.387 0.393066 15.781 0.393066 15.0702V13.949Z" fill="#C2C3CB"/>
</svg>
